<svg width="117" height="416" viewBox="0 0 117 416" fill="none" xmlns="http://www.w3.org/2000/svg">
<g opacity="0.5">
<path opacity="0.0344828" d="M-212.858 319.182C-211.036 321.516 -208.289 322.961 -204.683 323.542C-201.073 324.124 -196.624 323.836 -191.436 322.722C-181.06 320.494 -167.805 314.978 -152.567 306.649C-122.096 289.994 -83.7664 262.134 -44.8081 227.013C-5.84981 191.891 26.3435 156.174 46.9007 126.826C57.181 112.149 64.539 99.0828 68.383 88.4916C70.3051 83.1959 71.3417 78.5378 71.4353 74.6177C71.5288 70.701 70.6813 67.5442 68.8587 65.2105C67.0361 62.8768 64.2896 61.4319 60.6832 60.8507C57.0737 60.2691 52.624 60.5569 47.436 61.671C37.0603 63.8991 23.8055 69.4153 8.56732 77.744C-21.9038 94.3985 -60.2333 122.259 -99.1916 157.38C-138.15 192.502 -170.343 228.219 -190.9 257.567C-201.181 272.244 -208.539 285.31 -212.383 295.901C-214.305 301.197 -215.341 305.855 -215.435 309.775C-215.529 313.692 -214.681 316.849 -212.858 319.182Z" stroke="#828282" stroke-width="0.741177"/>
<path opacity="0.0689655" d="M-202.023 333.47C-200.019 335.623 -197.167 336.805 -193.528 337.046C-189.885 337.288 -185.475 336.584 -180.397 334.989C-170.241 331.797 -157.483 325.061 -142.979 315.337C-113.974 295.892 -78.0501 264.548 -42.0889 225.912C-6.12766 187.276 23.046 148.68 41.1445 117.518C50.1953 101.934 56.4656 88.228 59.436 77.3166C60.9212 71.8607 61.576 67.123 61.3512 63.2091C61.1267 59.2985 60.0264 56.2346 58.0229 54.082C56.0194 51.9295 53.1676 50.7473 49.5276 50.5061C45.8847 50.2646 41.4751 50.9681 36.3969 52.5638C26.2409 55.7551 13.4836 62.4918 -1.02121 72.2158C-30.0258 91.6605 -65.9498 123.004 -101.911 161.64C-137.872 200.276 -167.046 238.872 -185.144 270.035C-194.195 285.618 -200.465 299.324 -203.436 310.236C-204.921 315.692 -205.576 320.429 -205.351 324.343C-205.127 328.254 -204.026 331.318 -202.023 333.47Z" stroke="#828282" stroke-width="0.741177"/>
<path opacity="0.103448" d="M-190.197 346.696C-188.028 348.652 -185.093 349.562 -181.447 349.462C-177.799 349.361 -173.463 348.247 -168.533 346.182C-158.674 342.052 -146.511 334.146 -132.85 323.1C-105.533 301.013 -72.2879 266.425 -39.5975 224.568C-6.90714 182.711 19.0248 141.53 34.5268 108.791C42.2792 92.4189 47.4139 78.1771 49.4879 67.0285C50.525 61.454 50.7929 56.6728 50.2515 52.7949C49.7106 48.92 48.3661 45.9723 46.1973 44.0171C44.0284 42.0618 41.093 41.1511 37.4473 41.2517C33.7986 41.3522 29.4626 42.4659 24.5329 44.5312C14.674 48.6617 2.51126 56.5676 -11.1497 67.613C-38.4671 89.7 -71.712 124.289 -104.402 166.145C-137.093 208.002 -163.025 249.184 -178.527 281.922C-186.279 298.295 -191.414 312.536 -193.488 323.685C-194.525 329.259 -194.793 334.041 -194.251 337.918C-193.711 341.793 -192.366 344.741 -190.197 346.696Z" stroke="#828282" stroke-width="0.741177"/>
<path opacity="0.137931" d="M-177.472 358.771C-175.154 360.514 -172.157 361.147 -168.534 360.705C-164.907 360.263 -160.678 358.748 -155.934 356.228C-146.447 351.19 -134.972 342.175 -122.259 329.892C-96.8365 305.331 -66.5237 267.761 -37.353 223.002C-8.18229 178.243 14.3106 134.79 27.098 100.723C33.4927 83.6872 37.4528 69.0184 38.6146 57.7175C39.1955 52.0666 39.0746 47.2784 38.2207 43.4659C37.3674 39.6564 35.7892 36.8472 33.4717 35.1038C31.1543 33.3605 28.1575 32.7279 24.5337 33.1694C20.9072 33.6113 16.6778 35.1268 11.9341 37.646C2.4473 42.6841 -9.02818 51.6992 -21.7414 63.9819C-47.1634 88.5433 -77.4763 126.114 -106.647 170.873C-135.818 215.631 -158.31 259.085 -171.098 293.151C-177.493 310.187 -181.453 324.856 -182.615 336.157C-183.195 341.808 -183.074 346.596 -182.221 350.408C-181.367 354.218 -179.789 357.027 -177.472 358.771Z" stroke="#828282" stroke-width="0.741177"/>
<path opacity="0.172414" d="M-163.943 369.613C-161.495 371.132 -158.459 371.481 -154.885 370.702C-151.308 369.923 -147.218 368.017 -142.696 365.063C-133.654 359.155 -122.953 349.1 -111.284 335.673C-87.9512 308.824 -60.8012 268.558 -35.3723 221.237C-9.94336 173.917 8.9391 128.522 18.9144 93.3878C23.903 75.8175 26.6581 60.8332 26.8988 49.466C27.0191 43.7819 26.5101 39.0231 25.3502 35.3051C24.1911 31.5898 22.3914 28.9405 19.9431 27.4218C17.4949 25.9032 14.4595 25.5533 10.8852 26.3325C7.30823 27.1123 3.21777 29.0181 -1.30379 31.9721C-10.3462 37.8796 -21.0471 47.9353 -32.7156 61.362C-56.0488 88.2107 -83.1988 128.477 -108.628 175.797C-134.057 223.118 -152.939 268.512 -162.914 303.647C-167.903 321.217 -170.658 336.202 -170.899 347.569C-171.019 353.253 -170.51 358.012 -169.35 361.73C-168.191 365.445 -166.391 368.094 -163.943 369.613Z" stroke="#828282" stroke-width="0.741177"/>
<path opacity="0.206897" d="M-149.714 379.153C-147.154 380.436 -144.103 380.501 -140.605 379.39C-137.105 378.278 -133.185 375.996 -128.92 372.63C-120.391 365.898 -110.546 354.878 -100.011 340.41C-78.9443 311.478 -55.1639 268.822 -33.6704 219.301C-12.1768 169.779 2.95146 122.789 10.0388 86.8532C13.583 68.8824 15.1122 53.6967 14.4298 42.3497C14.0885 36.6757 13.1954 31.9824 11.7383 28.3872C10.2821 24.7945 8.27478 22.3249 5.71438 21.0422C3.15398 19.7595 0.102888 19.6947 -3.39473 20.8057C-6.8948 21.9174 -10.8152 24.1991 -15.0802 27.5654C-23.6093 34.2975 -33.454 45.3172 -43.9891 59.7856C-65.0558 88.7175 -88.8361 131.373 -110.33 180.895C-131.823 230.417 -146.952 277.407 -154.039 313.342C-157.583 331.313 -159.112 346.499 -158.43 357.846C-158.089 363.52 -157.195 368.213 -155.738 371.808C-154.282 375.401 -152.275 377.871 -149.714 379.153Z" stroke="#828282" stroke-width="0.741177"/>
<path opacity="0.241379" d="M-134.894 387.331C-132.241 388.369 -129.197 388.148 -125.803 386.714C-122.406 385.279 -118.686 382.638 -114.71 378.885C-106.759 371.38 -97.8455 359.48 -88.5241 344.08C-69.8843 313.285 -49.6547 268.565 -32.2601 217.219C-14.8655 165.873 -3.60666 117.644 0.538577 81.1813C2.61155 62.9469 2.90302 47.6754 1.30266 36.4351C0.50241 30.8144 -0.768134 26.2225 -2.51137 22.7773C-4.25344 19.3345 -6.45304 17.0634 -9.10617 16.0259C-11.7593 14.9884 -14.8031 15.2091 -18.1974 16.6434C-21.594 18.0787 -25.3145 20.7188 -29.2903 24.4719C-37.2412 31.9773 -46.1546 43.8772 -55.4761 59.2772C-74.1158 90.072 -94.3455 134.793 -111.74 186.139C-129.135 237.485 -140.393 285.713 -144.539 322.176C-146.612 340.41 -146.903 355.682 -145.303 366.922C-144.503 372.543 -143.232 377.135 -141.489 380.58C-139.747 384.023 -137.547 386.294 -134.894 387.331Z" stroke="#828282" stroke-width="0.741177"/>
<path opacity="0.275862" d="M-119.594 394.095C-116.869 394.88 -113.855 394.375 -110.59 392.628C-107.323 390.881 -103.83 387.902 -100.174 383.791C-92.862 375.569 -84.9477 362.88 -76.911 346.665C-60.8401 314.242 -44.3152 267.797 -31.152 215.017C-17.9888 162.238 -10.6852 113.138 -9.51362 76.4256C-8.92774 58.0662 -9.87623 42.8252 -12.3824 31.7772C-13.6356 26.2527 -15.2739 21.7971 -17.29 18.5283C-19.3047 15.2616 -21.6798 13.2059 -24.4057 12.4211C-27.1315 11.6364 -30.1451 12.1409 -33.4102 13.8876C-36.6774 15.6354 -40.1697 18.614 -43.8261 22.7252C-51.1381 30.9468 -59.0524 43.6363 -67.0891 59.8507C-83.16 92.274 -99.6849 138.719 -112.848 191.499C-126.011 244.278 -133.315 293.378 -134.486 330.09C-135.072 348.45 -134.124 363.691 -131.618 374.739C-130.364 380.263 -128.726 384.719 -126.71 387.988C-124.695 391.254 -122.32 393.31 -119.594 394.095Z" stroke="#828282" stroke-width="0.741177"/>
<path opacity="0.310345" d="M-103.932 399.407C-101.154 399.933 -98.1937 399.149 -95.0826 397.103C-91.9696 395.056 -88.7321 391.761 -85.4231 387.323C-78.8058 378.448 -71.9509 365.065 -65.26 348.16C-51.8805 314.355 -39.186 266.539 -30.3545 212.728C-21.523 158.916 -18.2301 109.319 -20.0412 72.6367C-20.9469 54.2922 -23.1282 39.1978 -26.5211 28.4263C-28.2178 23.04 -30.2113 18.7547 -32.4849 15.6871C-34.7571 12.6214 -37.2895 10.7965 -40.0676 10.2702C-42.8457 9.74385 -45.8064 10.5282 -48.9174 12.574C-52.0304 14.6212 -55.2679 17.9155 -58.577 22.3536C-65.1943 31.2287 -72.0492 44.6112 -78.7401 61.5166C-92.1196 95.3216 -104.814 143.137 -113.646 196.949C-122.477 250.76 -125.77 300.357 -123.959 337.04C-123.053 355.385 -120.872 370.479 -117.479 381.25C-115.782 386.637 -113.789 390.922 -111.515 393.99C-109.243 397.055 -106.711 398.88 -103.932 399.407Z" stroke="#828282" stroke-width="0.741177"/>
<path opacity="0.448276" d="M-40.0675 405.729C-37.2893 405.203 -34.7569 403.378 -32.4848 400.312C-30.2112 397.245 -28.2177 392.959 -26.521 387.573C-23.1281 376.801 -20.9468 361.707 -20.0411 343.363C-18.23 306.68 -21.5229 257.083 -30.3544 203.271C-39.1859 149.46 -51.8803 101.644 -65.2598 67.8392C-71.9507 50.9338 -78.8056 37.5513 -85.423 28.6761C-88.732 24.2381 -91.9695 20.9437 -95.0825 18.8966C-98.1935 16.8507 -101.154 16.0664 -103.932 16.5927C-106.71 17.119 -109.243 18.944 -111.515 22.0096C-113.789 25.0772 -115.782 29.3625 -117.479 34.7488C-120.872 45.5204 -123.053 60.6147 -123.959 78.9592C-125.77 115.642 -122.477 165.239 -113.645 219.05C-104.814 272.862 -92.1194 320.678 -78.7399 354.483C-72.049 371.388 -65.1942 384.771 -58.5768 393.646C-55.2678 398.084 -52.0303 401.378 -48.9173 403.425C-45.8062 405.471 -42.8456 406.255 -40.0675 405.729Z" stroke="#828282" stroke-width="0.741177"/>
<path opacity="0.482759" d="M-24.4055 403.577C-21.6797 402.793 -19.3046 400.737 -17.2899 397.47C-15.2738 394.202 -13.6355 389.746 -12.3823 384.221C-9.87612 373.173 -8.92763 357.932 -9.51351 339.573C-10.6851 302.861 -17.9887 253.761 -31.1519 200.981C-44.3151 148.202 -60.84 101.757 -76.9108 69.3334C-84.9476 53.119 -92.8619 40.4294 -100.174 32.2079C-103.83 28.0967 -107.323 25.1181 -110.59 23.3702C-113.855 21.6235 -116.868 21.1191 -119.594 21.9038C-122.32 22.6885 -124.695 24.7442 -126.71 28.0109C-128.726 31.2797 -130.364 35.7353 -131.618 41.2599C-134.124 52.3079 -135.072 67.5488 -134.486 85.9082C-133.315 122.621 -126.011 171.72 -112.848 224.5C-99.6848 277.28 -83.1598 323.725 -67.089 356.148C-59.0523 372.362 -51.138 385.052 -43.826 393.273C-40.1696 397.385 -36.6773 400.363 -33.4101 402.111C-30.1449 403.858 -27.1314 404.362 -24.4055 403.577Z" stroke="#828282" stroke-width="0.741177"/>
<path opacity="0.517241" d="M-9.10596 399.974C-6.45283 398.937 -4.25323 396.665 -2.51116 393.223C-0.76793 389.777 0.502617 385.186 1.30287 379.565C2.90323 368.325 2.61175 353.053 0.53878 334.819C-3.60645 298.356 -14.8653 250.127 -32.2599 198.781C-49.6545 147.435 -69.8841 102.715 -88.5239 71.9198C-97.8453 56.5198 -106.759 44.6198 -114.71 37.1145C-118.685 33.3614 -122.406 30.7213 -125.803 29.286C-129.197 27.8517 -132.241 27.631 -134.894 28.6685C-137.547 29.706 -139.746 31.9771 -141.489 35.4199C-143.232 38.8651 -144.502 43.457 -145.303 49.0776C-146.903 60.318 -146.611 75.5895 -144.539 93.8239C-140.393 130.287 -129.134 178.515 -111.74 229.861C-94.3453 281.207 -74.1156 325.928 -55.4759 356.723C-46.1544 372.123 -37.241 384.023 -29.2901 391.528C-25.3143 395.281 -21.5938 397.921 -18.1972 399.356C-14.8029 400.791 -11.7591 401.012 -9.10596 399.974Z" stroke="#828282" stroke-width="0.741177"/>
<path opacity="0.551724" d="M5.71443 394.957C8.27483 393.674 10.2822 391.205 11.7383 387.612C13.1954 384.017 14.0886 379.323 14.4298 373.649C15.1122 362.302 13.5831 347.117 10.0388 329.146C2.9515 293.21 -12.1768 246.22 -33.6703 196.698C-55.1639 147.177 -78.9442 104.521 -100.011 75.589C-110.546 61.1206 -120.391 50.1009 -128.92 43.3688C-133.185 40.0025 -137.105 37.7209 -140.605 36.6091C-144.103 35.4982 -147.154 35.5629 -149.714 36.8456C-152.275 38.1284 -154.282 40.5979 -155.738 44.1906C-157.195 47.7859 -158.089 52.4791 -158.43 58.1531C-159.112 69.5001 -157.583 84.6858 -154.039 102.657C-146.951 138.592 -131.823 185.582 -110.33 235.104C-88.8361 284.626 -65.0557 327.282 -43.9891 356.213C-33.4539 370.682 -23.6093 381.702 -15.0801 388.434C-10.8152 391.8 -6.89476 394.082 -3.39469 395.193C0.102935 396.304 3.15403 396.24 5.71443 394.957Z" stroke="#828282" stroke-width="0.741177"/>
<path opacity="0.586207" d="M19.9432 388.577C22.3914 387.059 24.1911 384.409 25.3502 380.694C26.5101 376.976 27.0191 372.217 26.8988 366.533C26.6581 355.166 23.903 340.182 18.9145 322.611C8.93913 287.477 -9.94333 242.082 -35.3722 194.762C-60.8012 147.441 -87.9511 107.175 -111.284 80.3263C-122.953 66.8996 -133.654 56.8439 -142.696 50.9364C-147.218 47.9824 -151.308 46.0766 -154.885 45.2968C-158.459 44.5176 -161.495 44.8675 -163.943 46.3861C-166.391 47.9048 -168.191 50.5541 -169.35 54.2694C-170.51 57.9874 -171.019 62.7463 -170.899 68.4303C-170.658 79.7975 -167.903 94.7819 -162.914 112.352C-152.939 147.487 -134.057 192.881 -108.628 240.202C-83.1988 287.522 -56.0488 327.788 -32.7156 354.637C-21.047 368.064 -10.3462 378.119 -1.30376 384.027C3.2178 386.981 7.30826 388.887 10.8852 389.667C14.4595 390.446 17.4949 390.096 19.9432 388.577Z" stroke="#828282" stroke-width="0.741177"/>
<path opacity="0.62069" d="M33.4717 380.895C35.7892 379.152 37.3674 376.343 38.2206 372.533C39.0745 368.721 39.1955 363.932 38.6146 358.282C37.4527 346.981 33.4927 332.312 27.0979 315.276C14.3105 281.209 -8.18232 237.756 -37.353 192.997C-66.5237 148.238 -96.8365 110.668 -122.259 86.1065C-134.972 73.8237 -146.447 64.8087 -155.934 59.7705C-160.678 57.2513 -164.907 55.7358 -168.534 55.294C-172.158 54.8524 -175.154 55.485 -177.472 57.2284C-179.789 58.9718 -181.367 61.7809 -182.221 65.5905C-183.075 69.403 -183.196 74.1912 -182.615 79.842C-181.453 91.143 -177.493 105.812 -171.098 122.848C-158.311 156.914 -135.818 200.368 -106.647 245.126C-77.4763 289.885 -47.1635 327.456 -21.7414 352.017C-9.02822 364.3 2.44727 373.315 11.9341 378.353C16.6778 380.872 20.9071 382.388 24.5337 382.83C28.1575 383.271 31.1543 382.639 33.4717 380.895Z" stroke="#828282" stroke-width="0.741177"/>
<path opacity="0.655172" d="M46.1972 371.982C48.366 370.027 49.7105 367.079 50.2515 363.205C50.7929 359.327 50.525 354.545 49.4879 348.971C47.4138 337.822 42.2791 323.581 34.5268 307.208C19.0248 274.47 -6.9072 233.288 -39.5976 191.431C-72.288 149.575 -105.533 114.986 -132.85 92.899C-146.511 81.8536 -158.674 73.9477 -168.533 69.8173C-173.463 67.752 -177.799 66.6383 -181.447 66.5377C-185.093 66.4372 -188.028 67.3479 -190.197 69.3031C-192.366 71.2584 -193.711 74.2061 -194.252 78.081C-194.793 81.9589 -194.525 86.74 -193.488 92.3146C-191.414 103.463 -186.279 117.705 -178.527 134.077C-163.025 166.816 -137.093 207.997 -104.402 249.854C-71.7121 291.711 -38.4671 326.299 -11.1498 348.386C2.5112 359.432 14.6739 367.338 24.5329 371.468C29.4626 373.533 33.7986 374.647 37.4472 374.748C41.0929 374.848 44.0284 373.938 46.1972 371.982Z" stroke="#828282" stroke-width="0.741177"/>
<path opacity="0.689655" d="M58.0228 361.917C60.0263 359.764 61.1266 356.701 61.3512 352.79C61.5759 348.876 60.9212 344.138 59.4359 338.682C56.4655 327.771 50.1953 314.065 41.1445 298.481C23.046 267.319 -6.12773 228.723 -42.0889 190.087C-78.0502 151.451 -113.974 120.107 -142.979 100.662C-157.484 90.9384 -170.241 84.2017 -180.397 81.0104C-185.475 79.4146 -189.885 78.7112 -193.528 78.9526C-197.168 79.1939 -200.019 80.376 -202.023 82.5286C-204.026 84.6811 -205.127 87.745 -205.351 91.6557C-205.576 95.5696 -204.921 100.307 -203.436 105.763C-200.466 116.675 -194.195 130.381 -185.144 145.964C-167.046 177.127 -137.872 215.723 -101.911 254.359C-65.9499 292.995 -30.0259 324.338 -1.02127 343.783C13.4835 353.507 26.2409 360.244 36.3968 363.435C41.475 365.031 45.8846 365.734 49.5276 365.493C53.1675 365.252 56.0193 364.07 58.0228 361.917Z" stroke="#828282" stroke-width="0.741177"/>
<path opacity="0.724138" d="M68.8587 350.789C70.6814 348.455 71.5289 345.299 71.4353 341.382C71.3417 337.462 70.3051 332.804 68.3831 327.508C64.539 316.917 57.181 303.85 46.9007 289.174C26.3435 259.825 -5.84979 224.108 -44.8081 188.987C-83.7664 153.865 -122.096 126.005 -152.567 109.351C-167.805 101.022 -181.06 95.5059 -191.436 93.2778C-196.624 92.1637 -201.073 91.8758 -204.683 92.4575C-208.289 93.0387 -211.036 94.4835 -212.858 96.8172C-214.681 99.1509 -215.529 102.308 -215.435 106.224C-215.341 110.145 -214.305 114.803 -212.383 120.098C-208.539 130.69 -201.181 143.756 -190.9 158.433C-170.343 187.781 -138.15 223.498 -99.1916 258.619C-60.2332 293.741 -21.9038 321.601 8.56734 338.256C23.8055 346.584 37.0603 352.1 47.436 354.329C52.624 355.443 57.0737 355.731 60.6832 355.149C64.2897 354.568 67.0361 353.123 68.8587 350.789Z" stroke="#828282" stroke-width="0.741177"/>
<path opacity="0.758621" d="M78.6221 338.695C81.8794 333.697 80.9643 325.768 76.2608 315.545C71.5724 305.354 63.1828 293.027 51.7511 279.369C28.8918 252.058 -6.07598 219.492 -47.7349 188.152C-89.3938 156.812 -129.837 132.648 -161.543 118.91C-177.398 112.04 -191.05 107.786 -201.566 106.538C-212.116 105.286 -219.365 107.074 -222.622 112.072C-225.879 117.07 -224.964 125 -220.261 135.223C-215.572 145.413 -207.183 157.741 -195.751 171.399C-172.892 198.71 -137.924 231.276 -96.2651 262.616C-54.6062 293.955 -14.1629 318.12 17.5427 331.858C33.3983 338.728 47.0496 342.981 57.5661 344.229C68.1164 345.481 75.3648 343.693 78.6221 338.695Z" stroke="#828282" stroke-width="0.741177"/>
<path opacity="0.793103" d="M87.2391 325.739C90.0802 320.452 88.5236 312.637 83.0096 302.895C77.5127 293.183 68.1553 281.688 55.6594 269.153C30.672 244.087 -6.80417 214.919 -50.8466 187.6C-94.8889 160.281 -137.138 139.995 -169.837 129.279C-186.189 123.92 -200.133 120.961 -210.71 120.702C-221.32 120.443 -228.398 122.902 -231.239 128.189C-234.08 133.476 -232.524 141.291 -227.01 151.033C-221.513 160.745 -212.155 172.24 -199.659 184.775C-174.672 209.841 -137.196 239.009 -93.1534 266.328C-49.111 293.647 -6.86182 313.933 25.8371 324.649C42.1893 330.008 56.1333 332.968 66.7105 333.226C77.3204 333.485 84.3981 331.026 87.2391 325.739Z" stroke="#828282" stroke-width="0.741177"/>
<path opacity="0.827586" d="M94.6443 312.032C97.0469 306.497 94.8608 298.856 88.5784 289.669C82.3148 280.508 72.0609 269.934 58.5959 258.617C31.6705 235.986 -8.0288 210.439 -54.1195 187.348C-100.21 164.257 -143.944 148.005 -177.387 140.391C-194.112 136.584 -208.242 134.942 -218.8 135.674C-229.389 136.41 -236.242 139.522 -238.644 145.057C-241.047 150.593 -238.86 158.233 -232.578 167.421C-226.314 176.581 -216.061 187.155 -202.596 198.472C-175.67 221.103 -135.971 246.65 -89.8802 269.741C-43.7896 292.832 -0.0559297 309.084 33.3873 316.698C50.1118 320.505 64.2424 322.148 74.7998 321.415C85.3889 320.68 92.2418 317.568 94.6443 312.032Z" stroke="#828282" stroke-width="0.741177"/>
<path opacity="0.862069" d="M100.781 297.69C102.726 291.948 99.9271 284.54 92.9242 275.977C85.9416 267.439 74.8693 257.865 60.5376 247.852C31.8792 227.829 -9.74106 206.096 -57.5293 187.409C-105.317 168.722 -150.203 156.627 -184.136 152.174C-201.105 149.947 -215.315 149.634 -225.772 151.353C-236.26 153.077 -242.836 156.818 -244.781 162.56C-246.726 168.302 -243.927 175.709 -236.925 184.272C-229.942 192.811 -218.87 202.384 -204.538 212.398C-175.88 232.421 -134.259 254.153 -86.471 272.84C-38.6828 291.528 6.20237 303.623 40.1355 308.076C57.105 310.302 71.3147 310.615 81.7721 308.896C92.2599 307.173 98.8358 303.431 100.781 297.69Z" stroke="#828282" stroke-width="0.741177"/>
<path opacity="0.896552" d="M105.603 282.833C107.076 276.929 103.685 269.812 96.0152 261.938C88.3668 254.086 76.5602 245.586 61.4709 236.952C31.2976 219.689 -11.927 201.937 -61.049 187.796C-110.171 173.654 -155.866 165.809 -190.031 164.55C-207.117 163.921 -221.297 164.94 -231.575 167.631C-241.882 170.33 -248.131 174.673 -249.603 180.577C-251.076 186.481 -247.685 193.598 -240.015 201.473C-232.367 209.324 -220.56 217.825 -205.471 226.458C-175.298 243.721 -132.073 261.473 -82.9509 275.615C-33.8289 289.756 11.8664 297.602 46.0313 298.86C63.1167 299.489 77.2973 298.47 87.5752 295.779C97.8821 293.08 104.131 288.738 105.603 282.833Z" stroke="#828282" stroke-width="0.741177"/>
<path opacity="0.931035" d="M109.074 267.589C110.062 261.568 106.106 254.794 97.8273 247.669C89.5712 240.563 77.1202 233.201 61.3882 226.014C29.9295 211.642 -14.5705 198.005 -64.6526 188.517C-114.735 179.029 -160.892 175.492 -195.029 177.438C-212.1 178.411 -226.144 180.753 -236.164 184.397C-246.212 188.05 -252.086 192.962 -253.074 198.983C-254.062 205.004 -250.106 211.777 -241.827 218.902C-233.571 226.008 -221.12 233.37 -205.388 240.557C-173.93 254.929 -129.43 268.567 -79.3474 278.054C-29.2653 287.542 16.8923 291.079 51.029 289.134C68.1002 288.161 82.1441 285.818 92.1643 282.175C102.212 278.521 108.086 273.61 109.074 267.589Z" stroke="#828282" stroke-width="0.741177"/>
<path opacity="0.965517" d="M111.167 252.082C111.663 245.991 107.172 239.613 98.3472 233.291C89.5462 226.985 76.5454 220.817 60.2903 215.13C27.7856 203.759 -17.6511 194.34 -68.3122 189.578C-118.973 184.817 -165.242 185.615 -199.091 190.75C-216.018 193.317 -229.818 196.966 -239.505 201.534C-249.218 206.114 -254.671 211.557 -255.167 217.648C-255.663 223.74 -251.172 230.117 -242.347 236.44C-233.546 242.745 -220.545 248.914 -204.29 254.6C-171.786 265.972 -126.349 275.39 -75.6878 280.152C-25.0267 284.914 21.242 284.116 55.0908 278.981C72.0181 276.414 85.8183 272.764 95.5047 268.197C105.218 263.617 110.671 258.174 111.167 252.082Z" stroke="#828282" stroke-width="0.741177"/>
<path d="M111.867 236.446C111.867 230.331 106.875 224.398 97.571 218.926C88.292 213.469 74.8404 208.542 58.1859 204.399C24.8824 196.114 -21.1454 190.986 -72 190.986C-122.855 190.986 -168.882 196.114 -202.186 204.399C-218.84 208.542 -232.292 213.469 -241.571 218.926C-250.875 224.398 -255.866 230.331 -255.866 236.446C-255.866 242.561 -250.875 248.494 -241.571 253.966C-232.292 259.423 -218.84 264.351 -202.186 268.494C-168.882 276.778 -122.855 281.906 -72 281.906C-21.1454 281.906 24.8824 276.778 58.1859 268.494C74.8404 264.351 88.292 259.423 97.571 253.966C106.875 248.494 111.867 242.561 111.867 236.446Z" stroke="#828282" stroke-width="0.741177"/>
</g>
</svg>
