<svg width="100" height="100" viewBox="0 0 100 100" fill="none" xmlns="http://www.w3.org/2000/svg">
<path d="M98.4875 62.0905C91.8125 88.8999 64.6781 105.175 37.9094 98.503C11.1344 91.878 -5.17501 64.678 1.51249 37.9374C8.17187 11.1343 35.3219 -5.17508 62.075 1.49679C88.8656 8.18742 105.175 35.3062 98.4875 62.1093V62.0905ZM72.0375 42.8718C73.0281 36.2468 67.9656 32.6687 61.0344 30.2593L63.2844 21.2874L57.7969 19.903L55.6187 28.6937C54.1844 28.3187 52.6906 27.9937 51.1906 27.653L53.375 18.7812L47.8719 17.4155L45.625 26.4312L42.125 25.603L34.575 23.7124L33.1094 29.5905C33.1094 29.5905 37.1812 30.5155 37.0812 30.5655C39.3156 31.1374 39.7187 32.5812 39.6562 33.7562L33.5031 58.428C33.1937 59.1155 32.4937 60.1249 30.95 59.7312C31 59.8093 26.9469 58.7405 26.9469 58.7405L24.1969 65.0187L31.325 66.7937L35.1969 67.803L32.9344 76.9374L38.4375 78.2874L40.7 69.253C42.1969 69.678 43.6281 70.0499 45.0594 70.3937L42.9469 79.3593L48.4469 80.7437L50.7094 71.6155C60.05 73.3874 67.0844 72.6874 70.0469 64.2249C72.4219 57.403 69.9125 53.4843 64.9844 50.9124C68.5312 50.0968 71.2344 47.7374 71.9812 42.8718H72.0375ZM59.4875 60.4655C57.8125 67.2999 46.3375 63.5905 42.6125 62.6624L45.6219 50.5874C49.35 51.5468 61.2625 53.3843 59.4875 60.4655ZM61.2 42.7905C59.65 49.0062 50.1125 45.8655 47.0031 45.0812L49.7406 34.0812C52.8312 34.828 62.8062 36.2593 61.2 42.7718V42.7905Z" fill="#B982FF"/>
</svg>
