<svg width="76" height="76" viewBox="0 0 76 76" fill="none" xmlns="http://www.w3.org/2000/svg">
<path d="M6.80273 75.5C6.80273 75.5 0.552734 75.5 0.552734 69.25C0.552734 63 6.80273 44.25 38.0527 44.25C69.3027 44.25 75.5527 63 75.5527 69.25C75.5527 75.5 69.3027 75.5 69.3027 75.5H6.80273ZM38.0527 38C43.0255 38 47.7947 36.0246 51.311 32.5083C54.8273 28.9919 56.8027 24.2228 56.8027 19.25C56.8027 14.2772 54.8273 9.50806 51.311 5.99175C47.7947 2.47544 43.0255 0.5 38.0527 0.5C33.0799 0.5 28.3108 2.47544 24.7945 5.99175C21.2782 9.50806 19.3027 14.2772 19.3027 19.25C19.3027 24.2228 21.2782 28.9919 24.7945 32.5083C28.3108 36.0246 33.0799 38 38.0527 38Z" fill="#B982FF"/>
</svg>
