<svg width="65" height="70" viewBox="0 0 65 70" fill="none" xmlns="http://www.w3.org/2000/svg">
<g filter="url(#filter0_b_100_228)">
<path d="M2.5 39.9216C2.5 23.3963 15.9748 10 32.5 10C49.0252 10 62.5 23.3963 62.5 39.9216C62.5 56.4468 49.0252 69.8431 32.5 69.8431C15.9748 69.8431 2.5 56.4468 2.5 39.9216Z" fill="url(#paint0_radial_100_228)"/>
<path d="M3 39.9216C3 23.6742 16.2492 10.5 32.5 10.5C48.7508 10.5 62 23.6742 62 39.9216C62 56.1689 48.7508 69.3431 32.5 69.3431C16.2492 69.3431 3 56.1689 3 39.9216Z" stroke="url(#paint1_radial_100_228)"/>
<path d="M3 39.9216C3 23.6742 16.2492 10.5 32.5 10.5C48.7508 10.5 62 23.6742 62 39.9216C62 56.1689 48.7508 69.3431 32.5 69.3431C16.2492 69.3431 3 56.1689 3 39.9216Z" stroke="url(#paint2_radial_100_228)"/>
<path d="M3 39.9216C3 23.6742 16.2492 10.5 32.5 10.5C48.7508 10.5 62 23.6742 62 39.9216C62 56.1689 48.7508 69.3431 32.5 69.3431C16.2492 69.3431 3 56.1689 3 39.9216Z" stroke="url(#paint3_radial_100_228)"/>
</g>
<g filter="url(#filter1_f_100_228)">
<ellipse cx="32.3076" cy="26.1117" rx="19.0385" ry="12.2755" fill="url(#paint4_radial_100_228)" fill-opacity="0.2"/>
</g>
<path d="M43.7 33V30.2C43.7 28.6558 42.4442 27.4 40.9 27.4H22.7C20.3844 27.4 18.5 29.2844 18.5 31.6V48.4C18.5 51.4814 21.0116 52.6 22.7 52.6H43.7C45.2442 52.6 46.5 51.3442 46.5 49.8V35.8C46.5 34.2558 45.2442 33 43.7 33ZM40.9 45.6H38.1V40H40.9V45.6ZM22.7 33C22.3395 32.9839 21.9992 32.8293 21.7498 32.5685C21.5004 32.3078 21.3612 31.9608 21.3612 31.6C21.3612 31.2392 21.5004 30.8922 21.7498 30.6314C21.9992 30.3707 22.3395 30.2161 22.7 30.2H40.9V33H22.7Z" fill="url(#paint5_linear_100_228)"/>
<defs>
<filter id="filter0_b_100_228" x="-2.5" y="5" width="70" height="69.8431" filterUnits="userSpaceOnUse" color-interpolation-filters="sRGB">
<feFlood flood-opacity="0" result="BackgroundImageFix"/>
<feGaussianBlur in="BackgroundImage" stdDeviation="2.5"/>
<feComposite in2="SourceAlpha" operator="in" result="effect1_backgroundBlur_100_228"/>
<feBlend mode="normal" in="SourceGraphic" in2="effect1_backgroundBlur_100_228" result="shape"/>
</filter>
<filter id="filter1_f_100_228" x="0.314631" y="0.881617" width="63.986" height="50.4601" filterUnits="userSpaceOnUse" color-interpolation-filters="sRGB">
<feFlood flood-opacity="0" result="BackgroundImageFix"/>
<feBlend mode="normal" in="SourceGraphic" in2="BackgroundImageFix" result="shape"/>
<feGaussianBlur stdDeviation="6.47727" result="effect1_foregroundBlur_100_228"/>
</filter>
<radialGradient id="paint0_radial_100_228" cx="0" cy="0" r="1" gradientUnits="userSpaceOnUse" gradientTransform="translate(7.51903 10) rotate(47.9449) scale(89.573 65.0813)">
<stop stop-color="white" stop-opacity="0.36"/>
<stop offset="1" stop-color="white" stop-opacity="0"/>
</radialGradient>
<radialGradient id="paint1_radial_100_228" cx="0" cy="0" r="1" gradientUnits="userSpaceOnUse" gradientTransform="translate(-29.4474 16.1221) rotate(35.0407) scale(69.1134 40.7912)">
<stop stop-color="white"/>
<stop offset="1" stop-color="white" stop-opacity="0.06"/>
</radialGradient>
<radialGradient id="paint2_radial_100_228" cx="0" cy="0" r="1" gradientUnits="userSpaceOnUse" gradientTransform="translate(80.0657 50.0506) rotate(161.385) scale(50.1321 33.8838)">
<stop stop-color="#8470FF"/>
<stop offset="1" stop-color="#865CFF" stop-opacity="0"/>
</radialGradient>
<radialGradient id="paint3_radial_100_228" cx="0" cy="0" r="1" gradientUnits="userSpaceOnUse" gradientTransform="translate(33.1532 -3.67695) rotate(47.2149) scale(33.4822 24.0659)">
<stop/>
<stop offset="1" stop-color="white" stop-opacity="0"/>
</radialGradient>
<radialGradient id="paint4_radial_100_228" cx="0" cy="0" r="1" gradientUnits="userSpaceOnUse" gradientTransform="translate(32.3076 13.8362) rotate(90) scale(18.1925 28.2187)">
<stop stop-color="white"/>
<stop offset="1" stop-color="white" stop-opacity="0"/>
</radialGradient>
<linearGradient id="paint5_linear_100_228" x1="23.6042" y1="64.9375" x2="58.4574" y2="34.7821" gradientUnits="userSpaceOnUse">
<stop stop-color="#982DEC"/>
<stop offset="0.572917" stop-color="#DC8DF8"/>
<stop offset="0.895833" stop-color="#A9C4F3"/>
</linearGradient>
</defs>
</svg>
