<svg width="65" height="70" viewBox="0 0 65 70" fill="none" xmlns="http://www.w3.org/2000/svg">
<g filter="url(#filter0_b_100_194)">
<path d="M2.5 39.9216C2.5 23.3963 15.9748 10 32.5 10C49.0252 10 62.5 23.3963 62.5 39.9216C62.5 56.4468 49.0252 69.8431 32.5 69.8431C15.9748 69.8431 2.5 56.4468 2.5 39.9216Z" fill="url(#paint0_radial_100_194)"/>
<path d="M3 39.9216C3 23.6742 16.2492 10.5 32.5 10.5C48.7508 10.5 62 23.6742 62 39.9216C62 56.1689 48.7508 69.3431 32.5 69.3431C16.2492 69.3431 3 56.1689 3 39.9216Z" stroke="url(#paint1_radial_100_194)"/>
<path d="M3 39.9216C3 23.6742 16.2492 10.5 32.5 10.5C48.7508 10.5 62 23.6742 62 39.9216C62 56.1689 48.7508 69.3431 32.5 69.3431C16.2492 69.3431 3 56.1689 3 39.9216Z" stroke="url(#paint2_radial_100_194)"/>
<path d="M3 39.9216C3 23.6742 16.2492 10.5 32.5 10.5C48.7508 10.5 62 23.6742 62 39.9216C62 56.1689 48.7508 69.3431 32.5 69.3431C16.2492 69.3431 3 56.1689 3 39.9216Z" stroke="url(#paint3_radial_100_194)"/>
</g>
<g filter="url(#filter1_f_100_194)">
<ellipse cx="32.3076" cy="26.1117" rx="19.0385" ry="12.2755" fill="url(#paint4_radial_100_194)" fill-opacity="0.2"/>
</g>
<path d="M28.7666 30.6667C28.2716 30.6667 27.7968 30.8633 27.4467 31.2134C27.0966 31.5635 26.9 32.0383 26.9 32.5333C26.9 33.0284 27.0966 33.5032 27.4467 33.8533C27.7968 34.2033 28.2716 34.4 28.7666 34.4H39.1938L36.7802 36.8136C36.4402 37.1657 36.2521 37.6372 36.2563 38.1266C36.2606 38.616 36.4569 39.0842 36.803 39.4303C37.1491 39.7764 37.6173 39.9727 38.1067 39.977C38.5961 39.9812 39.0676 39.7931 39.4197 39.4531L45.0197 33.8531C45.3697 33.503 45.5662 33.0283 45.5662 32.5333C45.5662 32.0384 45.3697 31.5637 45.0197 31.2136L39.4197 25.6136C39.2475 25.4353 39.0415 25.2931 38.8138 25.1953C38.5861 25.0975 38.3411 25.046 38.0933 25.0438C37.8454 25.0416 37.5996 25.0889 37.3702 25.1827C37.1408 25.2766 36.9324 25.4152 36.7571 25.5905C36.5818 25.7657 36.4432 25.9741 36.3494 26.2036C36.2555 26.433 36.2083 26.6788 36.2104 26.9266C36.2126 27.1745 36.2641 27.4194 36.3619 27.6472C36.4597 27.8749 36.602 28.0809 36.7802 28.2531L39.1938 30.6667H28.7666Z" fill="url(#paint5_linear_100_194)"/>
<path d="M36.2333 49.3333C36.7284 49.3333 37.2032 49.1367 37.5532 48.7866C37.9033 48.4365 38.1 47.9617 38.1 47.4667C38.1 46.9716 37.9033 46.4968 37.5532 46.1467C37.2032 45.7967 36.7284 45.6 36.2333 45.6H25.8061L28.2197 43.1864C28.398 43.0142 28.5402 42.8082 28.638 42.5805C28.7359 42.3527 28.7874 42.1078 28.7895 41.86C28.7917 41.6121 28.7444 41.3663 28.6506 41.1369C28.5567 40.9075 28.4181 40.6991 28.2429 40.5238C28.0676 40.3485 27.8592 40.2099 27.6298 40.1161C27.4004 40.0222 27.1546 39.975 26.9067 39.9771C26.6588 39.9793 26.4139 40.0308 26.1862 40.1286C25.9584 40.2264 25.7524 40.3687 25.5803 40.5469L19.9803 46.1469C19.6303 46.497 19.4337 46.9717 19.4337 47.4667C19.4337 47.9616 19.6303 48.4363 19.9803 48.7864L25.5803 54.3864C25.9323 54.7264 26.4038 54.9146 26.8933 54.9103C27.3827 54.9061 27.8509 54.7098 28.197 54.3637C28.5431 54.0176 28.7394 53.5494 28.7436 53.0599C28.7479 52.5705 28.5597 52.099 28.2197 51.7469L25.8061 49.3333H36.2333Z" fill="url(#paint6_linear_100_194)"/>
<defs>
<filter id="filter0_b_100_194" x="-2.5" y="5" width="70" height="69.8431" filterUnits="userSpaceOnUse" color-interpolation-filters="sRGB">
<feFlood flood-opacity="0" result="BackgroundImageFix"/>
<feGaussianBlur in="BackgroundImage" stdDeviation="2.5"/>
<feComposite in2="SourceAlpha" operator="in" result="effect1_backgroundBlur_100_194"/>
<feBlend mode="normal" in="SourceGraphic" in2="effect1_backgroundBlur_100_194" result="shape"/>
</filter>
<filter id="filter1_f_100_194" x="0.314631" y="0.881617" width="63.986" height="50.4601" filterUnits="userSpaceOnUse" color-interpolation-filters="sRGB">
<feFlood flood-opacity="0" result="BackgroundImageFix"/>
<feBlend mode="normal" in="SourceGraphic" in2="BackgroundImageFix" result="shape"/>
<feGaussianBlur stdDeviation="6.47727" result="effect1_foregroundBlur_100_194"/>
</filter>
<radialGradient id="paint0_radial_100_194" cx="0" cy="0" r="1" gradientUnits="userSpaceOnUse" gradientTransform="translate(7.51903 10) rotate(47.9449) scale(89.573 65.0813)">
<stop stop-color="white" stop-opacity="0.36"/>
<stop offset="1" stop-color="white" stop-opacity="0"/>
</radialGradient>
<radialGradient id="paint1_radial_100_194" cx="0" cy="0" r="1" gradientUnits="userSpaceOnUse" gradientTransform="translate(-29.4474 16.1221) rotate(35.0407) scale(69.1134 40.7912)">
<stop stop-color="white"/>
<stop offset="1" stop-color="white" stop-opacity="0.06"/>
</radialGradient>
<radialGradient id="paint2_radial_100_194" cx="0" cy="0" r="1" gradientUnits="userSpaceOnUse" gradientTransform="translate(80.0657 50.0506) rotate(161.385) scale(50.1321 33.8838)">
<stop stop-color="#8470FF"/>
<stop offset="1" stop-color="#865CFF" stop-opacity="0"/>
</radialGradient>
<radialGradient id="paint3_radial_100_194" cx="0" cy="0" r="1" gradientUnits="userSpaceOnUse" gradientTransform="translate(33.1532 -3.67695) rotate(47.2149) scale(33.4822 24.0659)">
<stop/>
<stop offset="1" stop-color="white" stop-opacity="0"/>
</radialGradient>
<radialGradient id="paint4_radial_100_194" cx="0" cy="0" r="1" gradientUnits="userSpaceOnUse" gradientTransform="translate(32.3076 13.8362) rotate(90) scale(18.1925 28.2187)">
<stop stop-color="white"/>
<stop offset="1" stop-color="white" stop-opacity="0"/>
</radialGradient>
<linearGradient id="paint5_linear_100_194" x1="24.1975" y1="69.5326" x2="63.0438" y2="43.0654" gradientUnits="userSpaceOnUse">
<stop stop-color="#982DEC"/>
<stop offset="0.572917" stop-color="#DC8DF8"/>
<stop offset="0.895833" stop-color="#A9C4F3"/>
</linearGradient>
<linearGradient id="paint6_linear_100_194" x1="24.1975" y1="69.5326" x2="63.0438" y2="43.0654" gradientUnits="userSpaceOnUse">
<stop stop-color="#982DEC"/>
<stop offset="0.572917" stop-color="#DC8DF8"/>
<stop offset="0.895833" stop-color="#A9C4F3"/>
</linearGradient>
</defs>
</svg>
