<svg width="80" height="89" viewBox="0 0 80 89" fill="none" xmlns="http://www.w3.org/2000/svg">
<g filter="url(#filter0_b_26_10)">
<path d="M0 48.3915C0 26.3579 17.9664 8.49609 40 8.49609C62.0336 8.49609 80 26.3579 80 48.3915C80 70.4251 62.0336 88.2869 40 88.2869C17.9664 88.2869 0 70.4251 0 48.3915Z" fill="url(#paint0_radial_26_10)"/>
<path d="M0.5 48.3915C0.5 26.6357 18.2408 8.99609 40 8.99609C61.7592 8.99609 79.5 26.6357 79.5 48.3915C79.5 70.1473 61.7592 87.7869 40 87.7869C18.2408 87.7869 0.5 70.1473 0.5 48.3915Z" stroke="url(#paint1_radial_26_10)"/>
<path d="M0.5 48.3915C0.5 26.6357 18.2408 8.99609 40 8.99609C61.7592 8.99609 79.5 26.6357 79.5 48.3915C79.5 70.1473 61.7592 87.7869 40 87.7869C18.2408 87.7869 0.5 70.1473 0.5 48.3915Z" stroke="url(#paint2_radial_26_10)"/>
<path d="M0.5 48.3915C0.5 26.6357 18.2408 8.99609 40 8.99609C61.7592 8.99609 79.5 26.6357 79.5 48.3915C79.5 70.1473 61.7592 87.7869 40 87.7869C18.2408 87.7869 0.5 70.1473 0.5 48.3915Z" stroke="url(#paint3_radial_26_10)"/>
</g>
<g filter="url(#filter1_f_26_10)">
<ellipse cx="39.7435" cy="29.9783" rx="25.3846" ry="16.3673" fill="url(#paint4_radial_26_10)" fill-opacity="0.2"/>
</g>
<rect x="21.2615" y="24.5409" width="10.221" height="43.6096" rx="5.1105" fill="#B982FF"/>
<rect x="34.2083" y="34.4211" width="10.221" height="33.7293" rx="5.1105" fill="#B982FF"/>
<rect x="47.1545" y="45.6643" width="10.221" height="22.4862" rx="5.1105" fill="#B982FF"/>
<defs>
<filter id="filter0_b_26_10" x="-5" y="3.49609" width="90" height="89.7908" filterUnits="userSpaceOnUse" color-interpolation-filters="sRGB">
<feFlood flood-opacity="0" result="BackgroundImageFix"/>
<feGaussianBlur in="BackgroundImage" stdDeviation="2.5"/>
<feComposite in2="SourceAlpha" operator="in" result="effect1_backgroundBlur_26_10"/>
<feBlend mode="normal" in="SourceGraphic" in2="effect1_backgroundBlur_26_10" result="shape"/>
</filter>
<filter id="filter1_f_26_10" x="1.40435" y="0.656427" width="76.6784" height="58.6438" filterUnits="userSpaceOnUse" color-interpolation-filters="sRGB">
<feFlood flood-opacity="0" result="BackgroundImageFix"/>
<feBlend mode="normal" in="SourceGraphic" in2="BackgroundImageFix" result="shape"/>
<feGaussianBlur stdDeviation="6.47727" result="effect1_foregroundBlur_26_10"/>
</filter>
<radialGradient id="paint0_radial_26_10" cx="0" cy="0" r="1" gradientUnits="userSpaceOnUse" gradientTransform="translate(6.69204 8.49609) rotate(47.9449) scale(119.431 86.7751)">
<stop stop-color="white" stop-opacity="0.36"/>
<stop offset="1" stop-color="white" stop-opacity="0"/>
</radialGradient>
<radialGradient id="paint1_radial_26_10" cx="0" cy="0" r="1" gradientUnits="userSpaceOnUse" gradientTransform="translate(-42.5965 16.6589) rotate(35.0407) scale(92.1512 54.3882)">
<stop stop-color="white"/>
<stop offset="1" stop-color="white" stop-opacity="0.06"/>
</radialGradient>
<radialGradient id="paint2_radial_26_10" cx="0" cy="0" r="1" gradientUnits="userSpaceOnUse" gradientTransform="translate(103.421 61.8968) rotate(161.385) scale(66.8428 45.1784)">
<stop stop-color="#8470FF"/>
<stop offset="1" stop-color="#865CFF" stop-opacity="0"/>
</radialGradient>
<radialGradient id="paint3_radial_26_10" cx="0" cy="0" r="1" gradientUnits="userSpaceOnUse" gradientTransform="translate(40.871 -9.73983) rotate(47.2149) scale(44.643 32.0879)">
<stop/>
<stop offset="1" stop-color="white" stop-opacity="0"/>
</radialGradient>
<radialGradient id="paint4_radial_26_10" cx="0" cy="0" r="1" gradientUnits="userSpaceOnUse" gradientTransform="translate(39.7435 13.611) rotate(90) scale(24.2566 37.625)">
<stop stop-color="white"/>
<stop offset="1" stop-color="white" stop-opacity="0"/>
</radialGradient>
</defs>
</svg>
